<?xml version="1.0" ?><svg height="20" version="1.1" viewBox="0 0 20 20" width="20" xmlns="http://www.w3.org/2000/svg"><g id="layer1"><path d="M 0.47460938 0 A 0.4999986 0.50000733 0 0 0 0.05859375 0.73242188 L 10.058594 19.730469 A 0.4999986 0.50000733 0 0 0 11.001953 19.498047 L 11.001953 11 L 19.5 11 A 0.4999986 0.50000733 0 0 0 19.732422 10.056641 L 0.734375 0.056640625 A 0.4999986 0.50000733 0 0 0 0.52539062 0 A 0.4999986 0.50000733 0 0 0 0.47460938 0 z M 1.6953125 1.6933594 L 17.476562 10 L 10.501953 10 A 0.4999986 0.50000733 0 0 0 10.001953 10.5 L 10.001953 17.474609 L 1.6953125 1.6933594 z " style="fill:#222222; fill-opacity:1; stroke:none; stroke-width:0px;"/></g></svg>